# xmcd CD database file
#
# Track frame offsets:
#	150
#	19337
#	31645
#	48136
#	67662
#	98510
#	116322
#	130469
#	150833
#	160236
#	182881
#	200301
#	218490
#	229814
#	251990
#	270311
#
# Disc length: 3807 seconds
#
# Revision: 1
# Processed by: cddbd v1.5.2PL0 Copyright (c) Steve Scherf et al.
# Submitted via: CDex 1.70beta2
#
DISCID=c10edd10
DTITLE=Nicki Parrot and Rossano Sportiello - People will say we're in love
DYEAR=2007
DGENRE=Jazz
TTITLE0=The cup bearers
TTITLE1=Blues for Basie
TTITLE2=You'd be so nice to come home to
TTITLE3=You blew out the flame in my heart
TTITLE4=Let's do it
TTITLE5=One for Amos
TTITLE6=Revolutionary Etude C minor Opus 10 No 12
TTITLE7=Moon river
TTITLE8=What a littlle moonlight can do
TTITLE9=Time was
TTITLE10=They say it's wonderful
TTITLE11=Why did you tell me - I can't believe 
TTITLE12=Moon shadow
TTITLE13=The man I love
TTITLE14=Lost love Blues
TTITLE15=People will say we're in love
EXTD=YEAR: 2007
EXTT0=
EXTT1=
EXTT2=
EXTT3=
EXTT4=
EXTT5=
EXTT6=
EXTT7=
EXTT8=
EXTT9=
EXTT10=
EXTT11=
EXTT12=
EXTT13=
EXTT14=
EXTT15=
PLAYORDER=
